<svg width="184" height="244" viewBox="0 0 184 244" fill="none" xmlns="http://www.w3.org/2000/svg">
<g clip-path="url(#clip0_5_698)">
<path d="M202.051 106.527L198.79 105.273L202.553 100.198C219.917 76.6683 214.928 43.4919 191.403 26.1231C178.415 16.5326 162.499 13.7725 147.894 17.1738C136.522 4.79538 119.463 -1.9793 101.569 0.501958C75.0619 4.20991 55.969 26.9316 55.9968 52.9709C33.6428 51.6884 12.0412 64.7638 3.54 86.8164C-6.63362 113.246 5.82558 142.77 31.4129 154.173C17.9224 177.229 23.72 207.227 45.6839 223.481C60.0384 234.075 77.9328 236.305 93.681 231.148C104.83 240.738 119.826 245.701 135.518 243.498C155.782 240.655 171.697 226.715 178.08 208.677C201.103 210.824 223.68 197.665 232.405 175.027C242.913 147.733 229.311 117.065 202.023 106.555L202.051 106.527Z" fill="#FFDEF9"/>
</g>
<g clip-path="url(#clip1_5_698)">
<path d="M85.3512 120.895L102.351 87.8955" stroke="#FF98ED" stroke-width="5" stroke-miterlimit="10"/>
<path d="M117.351 124.895L133.351 91.8955" stroke="#FF98ED" stroke-width="5" stroke-miterlimit="10"/>
<path d="M82 145C82 145 88.3871 178.801 115 153.765" stroke="#FF98ED" stroke-width="5" stroke-miterlimit="10"/>
</g>
<defs>
<clipPath id="clip0_5_698">
<rect width="236" height="244" fill="white"/>
</clipPath>
<clipPath id="clip1_5_698">
<rect width="71" height="100" fill="white" transform="translate(63 79)"/>
</clipPath>
</defs>
</svg>
