<svg width="164" height="152" viewBox="0 0 164 152" fill="none" xmlns="http://www.w3.org/2000/svg">
<g clip-path="url(#clip0_184_77)">
<path d="M24.3865 103.765L32.9932 84.2381L26.6598 63.867C24.7666 57.7609 29.7159 51.7016 36.074 52.3451L57.3002 54.4974L74.7163 42.1817C79.9398 38.4903 87.2324 41.3269 88.5794 47.5821L93.0935 68.4334L110.191 81.1938C115.315 85.0208 114.869 92.8329 109.351 96.0479L90.918 106.782L84.0616 126.979C82.0085 133.031 74.4416 135.019 69.6718 130.762L53.7663 116.546L32.434 116.281C26.0417 116.194 21.8124 109.617 24.3865 103.765Z" fill="#FFECB8"/>
<path d="M89.7044 71.7421C89.7044 71.7421 86.521 63.1485 113.456 59.7395C113.456 59.7395 152.673 55.0917 140.055 46.5608" stroke="#FFECB8" stroke-width="5" stroke-miterlimit="10"/>
<path d="M141.887 44.7878C140.991 43.3942 139.135 42.9908 137.741 43.8869C136.348 44.7829 135.944 46.6391 136.84 48.0328C137.736 49.4264 139.592 49.8297 140.986 48.9337C142.38 48.0376 142.783 46.1814 141.887 44.7878Z" fill="#FFECB8"/>
<g clip-path="url(#clip1_184_77)">
<path d="M46.6606 72.7279C46.6606 72.7279 52.8862 66.0185 53.5793 76.1023" stroke="#F8B600" stroke-width="3" stroke-miterlimit="10"/>
<path d="M69.0516 80.1044C69.0516 80.1044 75.2772 73.3949 75.9703 83.4788" stroke="#F8B600" stroke-width="3" stroke-miterlimit="10"/>
<path d="M63.7403 82.7535C63.7403 82.7535 57.5147 89.463 56.8216 79.3791" stroke="#F8B600" stroke-width="3" stroke-miterlimit="10"/>
</g>
</g>
<defs>
<clipPath id="clip0_184_77">
<rect width="92.62" height="135.41" fill="white" transform="translate(50.0914 151.139) rotate(-122.74)"/>
</clipPath>
<clipPath id="clip1_184_77">
<rect width="17.9823" height="33.8204" fill="white" transform="translate(79.046 70.4756) rotate(94.198)"/>
</clipPath>
</defs>
</svg>
