<svg width="68" height="28" viewBox="0 0 68 28" fill="none" xmlns="http://www.w3.org/2000/svg">
<path d="M1.27516 15.26C1.25516 12.1 1.59516 9.06 1.65516 8.48C1.81516 7.66 2.59516 6.88 3.69516 6.88C4.73516 6.88 5.27516 7.74 5.27516 8.7C5.27516 8.76 5.27516 8.92 5.27516 8.94C5.15516 9.84 4.99516 10.78 4.99516 11.7C4.99516 12.7 5.11516 13.94 6.29516 14.4C6.85516 14.58 7.43516 14.66 7.99516 14.84C9.07516 15.12 10.1152 15.94 10.1152 17.16C10.1152 17.56 9.95516 17.92 9.67516 18.22C8.81516 19.18 7.67516 19.14 6.47516 19.14C3.77516 19.14 1.27516 18.52 1.27516 15.26ZM2.03516 14.5C2.03516 17.9 3.35516 18.38 6.59516 18.38C6.73516 18.38 7.05516 18.38 7.07516 18.38C7.93516 18.38 8.55516 18.28 9.19516 17.6C9.33516 17.46 9.35516 17.28 9.35516 17.12C9.35516 16.32 8.53516 15.78 7.83516 15.6C7.23516 15.44 6.61516 15.32 6.03516 15.12C4.63516 14.44 4.23516 13.32 4.23516 11.54C4.23516 11.42 4.23516 11.06 4.51516 8.76C4.51516 8.76 4.51516 8.7 4.51516 8.66C4.51516 8.16 4.25516 7.68 3.65516 7.64C2.93516 7.58 2.41516 8.22 2.39516 8.86C2.13516 13.06 2.03516 13.76 2.03516 14.5ZM10.8263 13.94C10.8263 11.98 12.1863 10.14 14.0063 9.54C14.4463 9.42 16.0863 9.04 16.5063 9.04C19.1263 9.04 20.5463 12 20.5463 14.32C20.5463 16.9 18.8263 19.02 16.1663 19.02C13.4463 19.02 10.8263 16.72 10.8263 13.94ZM11.5863 13.96C11.5863 16.34 14.0263 18.22 16.1863 18.22C18.4463 18.22 19.7063 16.5 19.7063 14.34C19.7063 12.38 18.7263 9.82 16.4063 9.82C15.9263 9.82 14.2463 10.18 13.7463 10.5C12.5063 11.22 11.5863 12.48 11.5863 13.96ZM15.4063 13.44C15.1863 12.9 15.5463 12.24 16.2263 12.24C16.7863 12.24 17.2063 12.64 17.2063 13.2C17.2063 13.74 16.8663 14.26 16.2863 14.26C15.7863 14.26 15.5663 13.84 15.4063 13.44ZM16.1263 13.02C16.0863 13.16 16.1263 13.5 16.2863 13.5C16.4463 13.5 16.4863 13.3 16.4863 13.18C16.4863 13.06 16.4063 12.96 16.2663 12.96C16.2263 12.96 16.1463 12.98 16.1263 13.02ZM25.6344 24.24C25.6344 23.92 25.7144 23.64 25.9544 23.36L27.3544 21.78C27.8344 21.26 28.0344 20.58 28.0344 19.9C28.0344 19.56 28.0344 18.92 27.5544 18.82C27.2944 18.82 26.0944 18.76 25.8344 18.74C25.3944 18.7 24.9144 18.62 24.5144 18.44C22.7744 17.62 21.5544 15.54 21.5544 13.64C21.5544 10.9 23.7144 9.28 26.3344 9.28C28.3144 9.28 29.9344 10.02 30.7544 11.96C31.5544 13.72 31.6744 15.68 31.6744 17.6C31.6744 17.76 31.6744 18.58 31.6744 18.76C31.6744 18.96 31.5744 19.94 31.5544 20.14C31.4944 20.72 31.2944 21.38 31.0944 21.94C30.4744 23.58 29.7544 24.78 27.9944 25.28C27.6744 25.36 27.3544 25.42 27.0344 25.42C26.2744 25.42 25.6344 25.1 25.6344 24.24ZM26.3344 24.3C26.3344 24.66 26.7944 24.68 27.0344 24.68C28.7344 24.68 29.6744 23.52 30.2544 22.04C30.4744 21.58 30.6344 21 30.7544 20.46C30.9344 19.5 30.9744 18.52 30.9744 17.56C30.9744 16.1 30.8744 14.56 30.4344 13.16C29.8144 11.06 28.6744 9.96 26.2944 9.96C24.2544 9.96 22.2544 11.28 22.2544 13.52C22.2544 15.44 23.6544 17.88 25.7744 18L27.7144 18.12C28.5944 18.18 28.7344 19.26 28.7344 19.94C28.7344 20.84 28.4744 21.64 27.8544 22.32C27.6544 22.52 26.7744 23.54 26.5544 23.76C26.4544 23.9 26.3344 24.1 26.3344 24.3ZM26.0944 13.84C26.0944 13.2 26.4744 12.6 27.1544 12.6C27.8544 12.6 28.5944 13.02 28.5944 13.74C28.5944 14.48 27.9944 15.06 27.2744 15.06C26.5944 15.06 26.0944 14.48 26.0944 13.84ZM26.7944 13.8C26.7944 14.12 27.0144 14.34 27.3344 14.34C27.6544 14.34 27.8544 14.08 27.8544 13.74C27.8544 13.42 27.4744 13.34 27.1744 13.34C26.9744 13.34 26.7944 13.6 26.7944 13.8ZM33.1512 13.94C33.1512 11.98 34.5112 10.14 36.3312 9.54C36.7712 9.42 38.4112 9.04 38.8312 9.04C41.4512 9.04 42.8712 12 42.8712 14.32C42.8712 16.9 41.1512 19.02 38.4912 19.02C35.7712 19.02 33.1512 16.72 33.1512 13.94ZM33.9112 13.96C33.9112 16.34 36.3512 18.22 38.5112 18.22C40.7712 18.22 42.0312 16.5 42.0312 14.34C42.0312 12.38 41.0512 9.82 38.7312 9.82C38.2512 9.82 36.5712 10.18 36.0712 10.5C34.8312 11.22 33.9112 12.48 33.9112 13.96ZM37.7312 13.44C37.5112 12.9 37.8712 12.24 38.5512 12.24C39.1112 12.24 39.5312 12.64 39.5312 13.2C39.5312 13.74 39.1912 14.26 38.6112 14.26C38.1112 14.26 37.8912 13.84 37.7312 13.44ZM38.4512 13.02C38.4112 13.16 38.4512 13.5 38.6112 13.5C38.7712 13.5 38.8112 13.3 38.8112 13.18C38.8112 13.06 38.7312 12.96 38.5912 12.96C38.5512 12.96 38.4712 12.98 38.4512 13.02ZM53.7794 8.78C55.2394 8.78 55.8994 9.54 56.3994 11.08C56.8794 12.54 57.5994 15.1 57.4394 17.02C57.3594 17.94 57.0994 18.76 55.7194 18.92C55.0794 19 54.3994 18.84 53.9394 18.42C53.8394 18.34 53.5194 17.84 53.0194 18.1C52.1794 18.54 50.8394 19.08 49.6794 19.08C46.1594 19.08 43.8794 16.88 43.8794 13.62C43.8794 12.22 44.1794 10.76 45.2394 9.86C45.8594 9.34 46.3394 9.1 47.3794 9.1C48.2394 9.1 48.7794 9.78 48.8794 10.6L49.1394 12.72C49.1794 13.04 49.3194 13.8 49.7794 13.8C50.3594 13.8 50.7194 12.82 50.8994 12.36C50.9594 12.22 51.4594 10.9 51.5394 10.76C51.9394 9.78 52.6394 8.78 53.7794 8.78ZM55.4594 18.14C56.2194 18.22 56.5594 17.6 56.6394 16.88C56.7194 15.68 56.2594 13.6 55.8594 12.02C55.4594 10.5 54.9994 9.68 53.8194 9.68C53.0794 9.68 52.6394 10.32 52.3594 10.96L51.5594 12.9C51.2394 13.66 50.7194 14.68 49.7394 14.68C48.8194 14.68 48.4194 13.58 48.3194 12.82L48.0994 10.82C48.0594 10.56 47.9394 9.92 47.3194 9.92C46.4594 9.92 45.7994 10.32 45.2994 11C44.8794 11.78 44.6994 12.72 44.6994 13.62C44.6994 16.56 46.8594 18.34 49.7994 18.34C50.7394 18.34 51.8194 17.82 52.6194 17.42C53.2994 17.08 53.7794 16.9 54.1994 17.46C54.3994 17.72 54.6994 18.08 55.4594 18.14ZM58.64 16C58.64 14.96 58.84 13.94 59.1 12.92C59.12 12.78 59.12 12.72 59.12 12.56C59.12 11.82 57.34 12.32 57.34 11.14C57.34 10.82 57.52 10.56 57.86 10.42L58.96 9.86C59.18 9.76 59.3 9.52 59.36 9.3C59.4 9.12 59.62 8.3 59.68 8.12C59.86 7.46 60.2 6.8 60.9 6.64C60.96 6.64 61.18 6.64 61.24 6.64C63.38 6.64 62.56 9.06 63.76 9.16L65.02 9.24C65.62 9.28 66.12 9.74 66.12 10.36C66.12 11.18 65.22 11.48 64.64 11.82C63.76 12.34 63.54 13.18 63.54 14.16C63.54 15.2 63.76 16.08 64.92 16.08C65.38 16.08 65.82 15.96 66.28 15.96C67.06 15.96 67.32 16.74 67.32 17.44C67.32 19.28 64.74 20.2 63.24 20.2C61.52 20.2 59.38 19.56 58.84 17.6C58.7 17.06 58.64 16.52 58.64 16ZM59.4 15.94C59.4 16.34 59.4 16.7 59.48 17.06C59.9 18.82 61.46 19.44 63.26 19.44C63.5 19.44 63.7 19.44 63.94 19.4C64.86 19.24 66.58 18.54 66.58 17.38C66.58 17.12 66.52 16.74 66.2 16.74C65.78 16.74 65.38 16.82 64.96 16.82C63.04 16.82 62.56 15.12 62.84 13.42C63.14 11.82 63.48 11.6 64.96 10.82C65.14 10.72 65.36 10.56 65.36 10.32C65.36 10.04 65.08 10.02 64.82 9.98C64.36 9.98 63.9 9.92 63.44 9.86C63.12 9.76 62.92 9.58 62.68 9.34C62.34 8.98 62.22 8.3 62.06 7.86C61.94 7.5 61.58 7.34 61.2 7.34C60.72 7.34 60.54 7.84 60.42 8.24C60.34 8.42 60.14 9.34 60.08 9.52C59.92 9.9 59.74 10.3 59.36 10.48L58.24 11.02C58.2 11.06 58.1 11.08 58.1 11.14C58.1 11.24 58.26 11.28 58.32 11.28C58.88 11.42 59.56 11.52 59.8 12.14C59.86 12.28 59.86 12.44 59.86 12.62C59.86 13.6 59.4 14.52 59.4 15.94Z" fill="black"/>
</svg>
