<svg width="515" height="500" viewBox="0 0 515 500" fill="none" xmlns="http://www.w3.org/2000/svg">
<g clip-path="url(#clip0_5_283)">
<path d="M-15 500.062V124.112C-15 124.112 472.73 59.0623 514.86 500.062" fill="#DACBFF"/>
<path d="M125.43 174.43C125.43 174.43 130.43 206.43 157.43 185.43" stroke="#8A88FF" stroke-width="7" stroke-miterlimit="10"/>
<path d="M167.43 189.43C167.43 189.43 172.43 221.43 199.43 200.43" stroke="#8A88FF" stroke-width="7" stroke-miterlimit="10"/>
<path d="M90.93 177.93C90.93 177.93 148.93 252.93 233.93 215.93" stroke="#8A88FF" stroke-width="7" stroke-miterlimit="10"/>
<path d="M154.51 155.422C147.1 152.762 142.3 144.642 137.12 138.732C126.87 125.842 113.45 107.272 109.71 97.1623C105.03 83.7123 116.55 85.0223 125.42 82.4123C131.79 80.0923 131.56 73.3123 130.88 66.8323C130.29 60.5623 128.75 52.6423 128.46 45.9023C127.29 15.5423 156.75 45.0523 167.88 26.1123C173.97 16.9123 181.68 -5.22774 195.95 6.20226C205.42 14.5023 202.57 34.3423 214.74 39.9923C226.83 45.0823 239.17 34.0123 251.3 32.5923C269.5 30.5523 268.05 48.9623 260.3 59.8823C254.8 68.3823 247.16 75.3423 239.71 82.3623C224.13 96.7823 198.56 120.402 180.58 137.032C173.66 142.652 161.8 157.172 154.66 155.452L154.51 155.422Z" stroke="#8A88FF" stroke-width="6" stroke-miterlimit="10"/>
</g>
<defs>
<clipPath id="clip0_5_283">
<rect width="529.86" height="500.05" fill="white" transform="translate(-15)"/>
</clipPath>
</defs>
</svg>
