<svg width="27" height="27" viewBox="0 0 27 27" fill="none" xmlns="http://www.w3.org/2000/svg">
<g clip-path="url(#clip0_5_664)">
<path d="M13.7048 26.9328C13.3334 26.9328 12.9593 26.9194 12.5852 26.8872C8.95083 26.589 5.65229 24.9152 3.29852 22.1749C0.94203 19.4373 -0.188431 15.9582 0.117394 12.3824C0.420489 8.80657 2.12164 5.56119 4.90684 3.24269C7.68657 0.929552 11.2227 -0.18 14.8598 0.112835C17.4156 0.322388 19.8267 1.2197 21.8665 2.71612L23.7042 1.12298C24.1547 0.733432 24.7773 0.631343 25.3289 0.854328C25.8832 1.07731 26.2545 1.5797 26.2982 2.16537L26.9263 10.4481C26.9618 10.9343 26.7706 11.3991 26.3993 11.7188C26.0279 12.0412 25.5364 12.1701 25.0503 12.0707L16.7794 10.4051C16.1951 10.2869 15.7336 9.8597 15.5807 9.29284C15.4278 8.72328 15.6107 8.12955 16.0585 7.74L17.9317 6.12C16.8641 5.52895 15.6653 5.16895 14.4393 5.06687C12.1538 4.87612 9.92292 5.58 8.16715 7.03881C6.41412 8.49761 5.341 10.5421 5.14986 12.7961C4.75392 17.4466 8.27911 21.5436 13.003 21.9358C16.7658 22.2367 20.3456 20.0498 21.7245 16.6084C21.9702 15.9904 22.4481 15.5042 23.0652 15.2382C23.6851 14.9722 24.3704 14.9615 24.9985 15.206C25.6265 15.4504 26.1207 15.9179 26.3883 16.5278C26.6559 17.1376 26.6696 17.8119 26.4211 18.4298C24.3868 23.5155 19.2752 26.9355 13.6993 26.9355L13.7048 26.9328ZM13.7102 0.814029C10.6629 0.814029 7.74391 1.8591 5.39561 3.81492C2.76606 6.00179 1.16048 9.06716 0.873765 12.4442C0.587054 15.8212 1.65471 19.1069 3.87741 21.694C6.1001 24.2812 9.21843 25.8636 12.648 26.1457C18.3249 26.6266 23.6714 23.2791 25.7221 18.1531C25.8941 17.7206 25.8859 17.2478 25.6975 16.8233C25.5091 16.3961 25.1623 16.0684 24.7227 15.8991C24.2831 15.7272 23.8025 15.7379 23.371 15.9233C22.9369 16.1087 22.6037 16.4499 22.4317 16.8824C20.9326 20.6275 17.0334 23.0212 12.9429 22.68C7.79852 22.2582 3.96479 17.7958 4.39622 12.737C4.60374 10.2869 5.7697 8.06239 7.67838 6.47194C9.58706 4.88418 12.0064 4.11851 14.5021 4.32806C16.023 4.45164 17.5003 4.94597 18.7782 5.75463C18.8792 5.81642 18.942 5.92388 18.953 6.0394C18.9611 6.15492 18.9147 6.27045 18.8246 6.34836L16.5637 8.30686C16.3289 8.51104 16.236 8.80925 16.3179 9.10746C16.3999 9.40567 16.6292 9.6206 16.9378 9.68239L25.2087 11.3481C25.4599 11.3991 25.7111 11.3319 25.9023 11.1654C26.0934 10.9988 26.1945 10.7597 26.1753 10.5098L25.5473 2.22716C25.5227 1.92089 25.3371 1.66567 25.0476 1.55015C24.7609 1.43463 24.4442 1.48567 24.2093 1.68985L22.1368 3.48448C22.0003 3.60269 21.7955 3.60806 21.6535 3.49791C19.682 1.98 17.3119 1.06925 14.7997 0.862388C14.4366 0.832835 14.0734 0.819402 13.713 0.819402L13.7102 0.814029Z" fill="black" stroke="black" stroke-width="0.5" stroke-miterlimit="10"/>
</g>
<defs>
<clipPath id="clip0_5_664">
<rect width="27" height="27" fill="white"/>
</clipPath>
</defs>
</svg>
