<svg width="16" height="15" viewBox="0 0 16 15" fill="none" xmlns="http://www.w3.org/2000/svg">
<g clip-path="url(#clip0_316_19)">
<path d="M4.95266 4.59131L4.98006 4.74568L4.69391 4.72396C3.36891 4.62647 2.19089 5.61225 2.06388 6.92532C1.99373 7.65033 2.2587 8.32307 2.73347 8.79812C2.51665 9.52838 2.6517 10.3409 3.16758 10.9634C3.93302 11.8847 5.26694 12.0674 6.28259 11.4419C6.756 12.3246 7.77218 12.8342 8.83195 12.6294C10.1017 12.3833 10.9623 11.2004 10.8081 9.95179C12.0239 9.91299 13.0589 8.97263 13.179 7.74578C13.2563 6.94465 12.9243 6.2092 12.3543 5.73272C12.4675 5.07782 12.31 4.38732 11.8566 3.84209C11.2711 3.13803 10.3543 2.86578 9.50084 3.05511C9.04548 2.1262 8.0032 1.58136 6.91536 1.79177C5.60402 2.04586 4.72562 3.29969 4.9544 4.5917L4.95266 4.59131Z" fill="#5F5DE3"/>
</g>
<defs>
<clipPath id="clip0_316_19">
<rect width="10.5563" height="11.1773" fill="white" transform="translate(5.52637 14.8457) rotate(-121.569)"/>
</clipPath>
</defs>
</svg>
