<svg width="323" height="56" viewBox="0 0 323 56" fill="none" xmlns="http://www.w3.org/2000/svg">
<g id="Frame 3">
<g id="Frame 2">
<g id="_&#235;&#160;&#136;&#236;&#157;&#180;&#236;&#150;&#180;_1" clip-path="url(#clip0_5_705)">
<path id="Vector" d="M5.86213 24.6142L6.02309 24.5834L6.00438 24.8828C5.92097 26.269 6.96767 27.4864 8.34179 27.6008C9.1005 27.664 9.7999 27.3777 10.2898 26.8749C11.056 27.0913 11.9034 26.9388 12.5467 26.391C13.4989 25.5782 13.6713 24.1815 13.0034 23.1287C13.9193 22.6216 14.4378 21.5525 14.2089 20.4477C13.934 19.1241 12.6857 18.2412 11.3829 18.4197C11.3254 17.1496 10.3281 16.0809 9.04425 15.9726C8.20588 15.9029 7.44186 16.2602 6.95182 16.8626C6.26579 16.7534 5.54631 16.9276 4.9828 17.4092C4.25513 18.0309 3.98338 18.9928 4.19315 19.8822C3.22867 20.3711 2.67377 21.468 2.90886 22.602C3.19271 23.969 4.51539 24.8695 5.86252 24.6124L5.86213 24.6142Z" fill="#F20095"/>
</g>
<g id="_&#235;&#160;&#136;&#236;&#157;&#180;&#236;&#150;&#180;_1_2" clip-path="url(#clip1_5_705)">
<path id="Vector_2" d="M5.47593 31.2151L7.89221 32.0515L10.2859 31.0939C11.0034 30.8075 11.7721 31.3394 11.7476 32.1056L11.6653 34.6636L13.2887 36.6238C13.7753 37.2117 13.4952 38.1112 12.7552 38.3338L10.2888 39.0786L8.89834 41.2477C8.48131 41.8977 7.53949 41.9214 7.10764 41.2936L5.66566 39.1963L3.18347 38.5758C2.43971 38.39 2.13816 37.5052 2.60973 36.8932L4.18491 34.8523L4.03972 32.3002C3.99708 31.5354 4.75186 30.9651 5.47593 31.2151Z" fill="#F8B600"/>
</g>
<rect id="Rectangle 34624484" x="18.5453" y="29" width="8.32354" height="11.8735" rx="4" transform="rotate(17.3728 18.5453 29)" fill="#7DC152"/>
<circle id="Ellipse 300" cx="22" cy="21" r="5" fill="#5F5DE3"/>
</g>
<path id="Lazy Traveler" d="M48.9472 30.52C48.9072 24.2 49.5872 18.12 49.7072 16.96C50.0272 15.32 51.5872 13.76 53.7872 13.76C55.8672 13.76 56.9472 15.48 56.9472 17.4C56.9472 17.52 56.9472 17.84 56.9472 17.88C56.7072 19.68 56.3872 21.56 56.3872 23.4C56.3872 25.4 56.6272 27.88 58.9872 28.8C60.1072 29.16 61.2672 29.32 62.3872 29.68C64.5472 30.24 66.6272 31.88 66.6272 34.32C66.6272 35.12 66.3072 35.84 65.7472 36.44C64.0272 38.36 61.7472 38.28 59.3472 38.28C53.9472 38.28 48.9472 37.04 48.9472 30.52ZM50.4672 29C50.4672 35.8 53.1072 36.76 59.5872 36.76C59.8672 36.76 60.5072 36.76 60.5472 36.76C62.2672 36.76 63.5072 36.56 64.7872 35.2C65.0672 34.92 65.1072 34.56 65.1072 34.24C65.1072 32.64 63.4672 31.56 62.0672 31.2C60.8672 30.88 59.6272 30.64 58.4672 30.24C55.6672 28.88 54.8672 26.64 54.8672 23.08C54.8672 22.84 54.8672 22.12 55.4272 17.52C55.4272 17.52 55.4272 17.4 55.4272 17.32C55.4272 16.32 54.9072 15.36 53.7072 15.28C52.2672 15.16 51.2272 16.44 51.1872 17.72C50.6672 26.12 50.4672 27.52 50.4672 29ZM67.7694 29C67.7694 23.56 72.0894 18.96 77.6094 18.96C84.5294 18.96 90.3694 25.56 90.3694 32.32C90.3694 34 89.8094 35.52 89.2094 37.12C88.9694 37.88 88.4494 38.2 87.9294 38.24C86.9694 38.32 85.7694 37.44 85.3694 36.44L84.5694 34.84C84.4494 34.64 84.3694 34.52 84.1294 34.52C83.7294 34.52 83.3294 34.8 82.9694 35.04C80.6094 36.92 78.8494 38.44 75.8094 38.44C70.7694 38.44 67.7694 33.64 67.7694 29ZM69.3694 28.8C69.3694 32.72 71.4894 36.84 75.8894 36.84C77.4094 36.84 78.8094 36.32 80.0494 35.4C81.2494 34.52 82.5294 33 84.1694 33C85.8894 33 86.0894 35 86.9694 36.12C87.1294 36.28 87.2894 36.32 87.4094 36.32C88.2494 36.32 88.7694 33.08 88.7694 32.24C88.7694 26.44 83.7294 20.56 77.4094 20.56C73.0094 20.56 69.3694 24.4 69.3694 28.8ZM77.5294 28C77.1294 27 77.8894 25.76 79.1294 25.56H79.6494C80.9294 25.56 81.9694 26.6 81.9694 27.92C81.9694 29.2 80.9294 30.48 79.6094 30.48C78.0494 30.48 77.8494 29.12 77.5294 28ZM79.1294 27.88C79.1294 28.2 79.2094 28.88 79.6494 28.88C80.1294 28.88 80.4094 28.32 80.4094 27.88C80.4094 27.52 80.1294 27.08 79.6494 27.08C79.4494 27.08 79.2094 27.32 79.1294 27.52C79.1294 27.6 79.1294 27.88 79.1294 27.88ZM91.1863 33.08C91.1863 30.88 92.7063 29.48 94.3863 28.36C94.5063 28.24 95.8263 27.52 95.9463 27.36C96.3063 27.16 96.7463 26.76 96.7463 26.32V26.24C96.7063 26.24 96.5063 26.16 96.4263 26.16C94.1063 25.96 91.3463 25.76 91.3463 22.8C91.3463 22.12 91.4663 21.6 91.6663 21C92.8263 18.08 96.8663 18.4 99.5463 18.4C102.466 18.56 106.746 18.68 108.626 21.4C109.146 22.2 109.466 22.92 109.466 23.92C109.466 27.16 106.306 28.56 104.306 30.56C104.266 30.6 103.986 30.96 103.986 31.08C103.986 31.44 108.266 32.16 108.626 32.2C109.946 32.48 111.066 33.08 111.066 34.48C111.066 36.6 108.146 37.16 106.626 37.32C99.8663 37.92 99.4263 37.92 99.2663 37.92C96.3463 37.92 91.1863 37.04 91.1863 33.08ZM92.7863 33.2C92.7863 35.72 97.1863 36.24 99.4663 36.24C99.8263 36.24 100.666 36.24 100.746 36.24L105.986 35.8C106.546 35.8 107.986 35.6 108.546 35.24C108.866 35.12 109.466 34.84 109.466 34.4C109.466 33.2 102.266 34 102.266 31.16C102.266 30.8 102.466 30.48 102.586 30.2C103.986 27.88 107.906 26.92 107.906 23.84C107.906 20.12 100.786 19.96 97.9063 19.8C96.2263 19.8 93.1463 19.92 92.9863 22.32C92.9863 22.32 92.9863 22.6 92.9863 22.72C92.9863 25.84 98.4263 23.04 98.4263 26.04C98.4263 29.64 92.7863 29.48 92.7863 33.2ZM123.859 49.6C121.779 49.6 121.739 47.68 121.939 46.24C123.339 41.2 123.339 40.56 123.339 39.88C123.339 39.12 123.419 35.92 122.059 35.92C118.339 35.92 117.619 35.76 117.259 35.68C113.739 35.04 112.499 29.68 112.379 26.56C112.299 24.52 112.539 22.52 113.139 21.16C113.819 19.68 114.779 19.4 116.179 19.32C117.979 19.24 120.059 20.76 120.459 23.12L120.899 25.68C120.899 25.72 121.019 26.24 121.059 26.36C121.179 26.76 121.459 27.72 122.019 27.72C123.659 27.68 124.019 26 124.339 24.96C124.819 23.32 125.139 21.2 127.259 21.2C129.979 21.2 130.659 24.56 130.699 26.64V29.6C129.739 40.52 129.339 42 129.219 42.44C128.659 44.96 127.219 49.6 123.859 49.6ZM123.339 46.76C123.339 48.12 123.739 48.16 123.899 48.16C125.459 48.16 126.579 46.08 126.979 44.8L127.619 42.76C127.779 42.08 128.139 40 129.059 29.08C129.059 27.64 129.099 26.24 128.779 24.64C128.619 23.72 128.299 22.76 127.259 22.76C126.379 22.76 126.019 24.16 125.819 25.24C125.419 27.16 123.939 29.24 121.979 29.24C120.539 29.24 119.739 27.4 119.499 26.2C119.419 25.68 119.019 23.56 118.899 23.04C118.659 21.84 117.379 20.88 116.179 20.88C113.939 20.88 113.979 23.56 113.979 26.64C113.979 29.04 115.099 33.44 117.739 34.32C119.459 34.6 121.179 34.28 122.899 34.64C124.779 35.12 124.779 38.52 124.779 40C124.779 40.68 124.779 41.36 123.339 46.76ZM153.123 32.84C153.083 32.12 152.963 29.04 152.963 28.36V26.2C152.963 25.8 152.963 24.76 153.483 21.44C153.483 21.44 153.483 21.32 153.483 21.28C153.483 20.2 152.323 20.04 151.523 20.04C150.763 20.04 150.003 20.12 149.283 20.12H148.563C147.403 19.8 146.803 18.88 146.803 17.72C146.803 16.64 146.883 15.96 147.683 15.16C149.083 13.84 151.043 13.4 152.963 13.4H153.603C158.243 13.76 163.163 13.96 167.843 13.84C169.643 14 170.523 14.88 170.563 15.8C170.643 16.84 169.683 18.2 167.763 18.6C164.203 19.36 162.683 19.6 162.123 23.52C162.083 24.24 161.963 26.36 161.963 26.6V27.64C161.963 29 162.123 30.4 162.123 31.76C162.123 33.04 161.923 34.2 161.603 35.48C161.043 37.2 158.843 38 157.123 38C154.603 38 153.363 34.96 153.123 32.84ZM154.643 32.4C154.763 33.8 155.283 36.2 156.843 36.56H157.323C158.243 36.56 159.683 36.12 160.083 35.16C160.403 34.16 160.563 33.08 160.563 31.48C160.563 30.2 160.403 28.92 160.403 27.6V26.8C160.403 26.28 160.563 23.72 160.643 23.2C160.843 20.8 161.923 18.32 164.643 17.76C165.083 17.68 166.963 17.28 167.403 17.2C168.323 17 169.043 16.28 169.043 15.84C169.043 15.52 168.643 15.32 167.643 15.32C164.203 15.4 160.963 15.32 157.563 15.16C157.203 15.16 154.283 14.92 153.963 14.92H152.963C151.363 14.92 148.203 15.28 148.203 17.6C148.203 18.24 148.483 18.72 149.203 18.72C149.923 18.72 150.763 18.6 151.563 18.6C153.243 18.6 155.003 19.4 155.003 21.28V21.84C154.723 23.4 154.483 24.68 154.483 26.2C154.483 28.28 154.603 30.2 154.643 32.4ZM170.603 28.64C170.603 25.36 171.603 17.92 176.203 17.92C177.763 17.92 178.803 19 179.283 20.4C179.523 21.24 179.763 22.36 180.123 23.36C180.163 23.52 180.283 24.04 180.603 23.8C182.923 21.72 185.803 19.68 189.083 19.68C192.043 19.68 194.683 21.56 194.683 24.6C194.683 26.96 192.803 28.56 190.763 29.4L184.603 31.92C183.563 32.36 182.283 33.04 181.723 34.04C181.323 34.68 181.163 35.44 180.843 36.12C180.003 37.6 178.483 38.52 176.003 38.52C171.443 38.52 170.603 31.76 170.603 28.64ZM172.283 28.56C172.283 30.92 172.523 36.84 176.203 36.84C178.083 36.84 178.883 36.08 179.443 35.16C179.923 34.4 180.003 33.48 180.563 32.76C181.403 31.64 182.803 30.88 184.043 30.32L190.683 27.6C191.963 27.12 193.003 25.92 193.003 24.52C193.003 22.4 190.963 21.36 189.083 21.36C186.163 21.36 183.923 23.24 181.723 25.08C181.323 25.44 180.843 25.64 180.283 25.64C177.523 25.64 178.803 19.56 176.203 19.56C173.843 19.56 172.723 23.88 172.443 25.64C172.363 25.92 172.283 26.84 172.283 26.96V28.56ZM195.352 29C195.352 23.56 199.672 18.96 205.192 18.96C212.112 18.96 217.952 25.56 217.952 32.32C217.952 34 217.392 35.52 216.792 37.12C216.552 37.88 216.032 38.2 215.512 38.24C214.552 38.32 213.352 37.44 212.952 36.44L212.152 34.84C212.032 34.64 211.952 34.52 211.712 34.52C211.312 34.52 210.912 34.8 210.552 35.04C208.192 36.92 206.432 38.44 203.392 38.44C198.352 38.44 195.352 33.64 195.352 29ZM196.952 28.8C196.952 32.72 199.072 36.84 203.472 36.84C204.992 36.84 206.392 36.32 207.632 35.4C208.832 34.52 210.112 33 211.752 33C213.472 33 213.672 35 214.552 36.12C214.712 36.28 214.872 36.32 214.992 36.32C215.832 36.32 216.352 33.08 216.352 32.24C216.352 26.44 211.312 20.56 204.992 20.56C200.592 20.56 196.952 24.4 196.952 28.8ZM205.112 28C204.712 27 205.472 25.76 206.712 25.56H207.232C208.512 25.56 209.552 26.6 209.552 27.92C209.552 29.2 208.512 30.48 207.192 30.48C205.632 30.48 205.432 29.12 205.112 28ZM206.712 27.88C206.712 28.2 206.792 28.88 207.232 28.88C207.712 28.88 207.992 28.32 207.992 27.88C207.992 27.52 207.712 27.08 207.232 27.08C207.032 27.08 206.792 27.32 206.712 27.52C206.712 27.6 206.712 27.88 206.712 27.88ZM219.209 25.48V24.52C219.369 22.08 219.409 18.4 222.609 18.4C225.209 18.4 226.769 20.28 227.969 22.36L229.889 25.96C230.129 26.32 230.329 26.68 230.689 26.96L230.729 26.88C230.809 26.8 231.009 26.48 231.009 26.48L232.969 22.72C233.009 22.56 233.649 21.6 233.849 21.32C234.609 20.28 236.089 18.4 237.689 18.4C239.489 18.4 239.689 20.64 239.689 22.04C239.689 24.8 239.209 29.08 237.969 32.16C235.929 36.32 233.289 38 228.649 38C224.209 38 221.729 35.76 220.409 31.6C219.769 29.6 219.209 27.64 219.209 25.48ZM220.969 25.48C221.089 28.32 221.649 29.92 222.129 31.4C223.249 34.8 225.249 36.24 228.729 36.24C230.049 36.24 231.369 36.16 232.609 35.64C235.529 34.44 238.209 30.44 237.969 20.84C237.969 20.64 237.889 20.16 237.609 20.16C237.249 20.16 236.969 20.36 236.769 20.56C234.769 22.56 233.889 24.92 232.409 27.44C232.049 28.12 231.449 28.68 230.609 28.68C229.609 28.68 228.849 27.56 228.449 26.8C228.249 26.48 226.849 23.76 226.649 23.4C225.969 22.16 224.129 19.68 222.649 20.04C220.889 20.4 220.969 23.88 220.969 25.48ZM241.157 26.88C241.157 24.52 242.157 22.68 244.117 21C246.637 18.76 250.117 17.56 253.437 17.56C254.757 17.56 255.997 17.76 257.197 18.28C260.557 19.76 262.837 23.88 262.837 27.48C262.837 32.96 257.557 33.2 253.277 33.2C252.237 33.2 251.197 33.16 250.197 33.16H249.877C250.237 34 251.437 34.08 252.237 34.08H255.677C256.517 34.2 256.837 34.72 256.837 35.6C256.837 38.36 253.077 38.96 250.997 38.96C244.637 38.96 241.157 32.6 241.157 26.88ZM244.197 23.16C243.437 24.24 242.717 25.24 242.717 26.8C242.717 27.96 242.917 29.4 243.197 30.36C243.917 33 245.837 36.24 248.677 37.04C249.517 37.28 250.237 37.28 251.117 37.28H252.157C252.957 37.28 255.277 36.76 255.277 35.64H252.117C250.837 35.64 249.277 35.32 248.597 34.12C248.357 33.68 248.157 33.2 248.157 32.68C248.157 32 248.677 31.44 249.317 31.44C250.597 31.44 251.837 31.64 253.077 31.64H254.357C254.877 31.64 257.317 31.44 257.837 31.36C260.157 30.88 261.277 29.64 261.277 27.32C261.277 24.16 259.157 20.72 256.117 19.56C255.277 19.2 254.357 19.16 253.437 19.16C250.197 19.16 246.157 20.4 244.197 23.16ZM252.357 27.8C250.717 27.8 249.997 26.92 249.917 25.92C249.797 24.6 250.717 23.12 252.037 23.12C253.557 23.12 254.397 24.28 254.397 25.68V26.28C254.197 27.28 253.277 27.8 252.357 27.8ZM251.557 25.36C251.557 25.96 251.837 26.28 252.437 26.28C252.757 26.28 252.877 26 252.877 25.68C252.877 25.16 252.637 24.68 252.117 24.68H251.837C251.557 24.84 251.557 25.16 251.557 25.36ZM268.476 14.56C270.876 14.56 272.356 17.36 272.916 19.64C273.476 22.68 274.356 26.04 273.036 34.84C272.676 37.04 271.276 38.32 269.036 38.32C266.036 38.32 265.196 35.76 265.196 33.16V21.2C265.196 19.4 265.556 14.56 268.476 14.56ZM268.516 15.88C266.876 15.88 266.716 20.76 266.716 22.12V32.28C266.716 34.04 266.436 36.92 268.956 36.92C270.476 36.92 271.436 36.12 271.636 34.64C272.556 26.72 272.636 25.88 271.636 20.16C271.316 18.68 270.076 15.88 268.516 15.88ZM275.573 26.88C275.573 24.52 276.573 22.68 278.533 21C281.053 18.76 284.533 17.56 287.853 17.56C289.173 17.56 290.413 17.76 291.613 18.28C294.973 19.76 297.253 23.88 297.253 27.48C297.253 32.96 291.973 33.2 287.693 33.2C286.653 33.2 285.613 33.16 284.613 33.16H284.293C284.653 34 285.853 34.08 286.653 34.08H290.093C290.933 34.2 291.253 34.72 291.253 35.6C291.253 38.36 287.493 38.96 285.413 38.96C279.053 38.96 275.573 32.6 275.573 26.88ZM278.613 23.16C277.853 24.24 277.133 25.24 277.133 26.8C277.133 27.96 277.333 29.4 277.613 30.36C278.333 33 280.253 36.24 283.093 37.04C283.933 37.28 284.653 37.28 285.533 37.28H286.573C287.373 37.28 289.693 36.76 289.693 35.64H286.533C285.253 35.64 283.693 35.32 283.013 34.12C282.773 33.68 282.573 33.2 282.573 32.68C282.573 32 283.093 31.44 283.733 31.44C285.013 31.44 286.253 31.64 287.493 31.64H288.773C289.293 31.64 291.733 31.44 292.253 31.36C294.573 30.88 295.693 29.64 295.693 27.32C295.693 24.16 293.573 20.72 290.533 19.56C289.693 19.2 288.773 19.16 287.853 19.16C284.613 19.16 280.573 20.4 278.613 23.16ZM286.773 27.8C285.133 27.8 284.413 26.92 284.333 25.92C284.213 24.6 285.133 23.12 286.453 23.12C287.973 23.12 288.813 24.28 288.813 25.68V26.28C288.613 27.28 287.693 27.8 286.773 27.8ZM285.973 25.36C285.973 25.96 286.253 26.28 286.853 26.28C287.173 26.28 287.293 26 287.293 25.68C287.293 25.16 287.053 24.68 286.533 24.68H286.253C285.973 24.84 285.973 25.16 285.973 25.36ZM298.811 28.64C298.811 25.36 299.811 17.92 304.411 17.92C305.971 17.92 307.011 19 307.491 20.4C307.731 21.24 307.971 22.36 308.331 23.36C308.371 23.52 308.491 24.04 308.811 23.8C311.131 21.72 314.011 19.68 317.291 19.68C320.251 19.68 322.891 21.56 322.891 24.6C322.891 26.96 321.011 28.56 318.971 29.4L312.811 31.92C311.771 32.36 310.491 33.04 309.931 34.04C309.531 34.68 309.371 35.44 309.051 36.12C308.211 37.6 306.691 38.52 304.211 38.52C299.651 38.52 298.811 31.76 298.811 28.64ZM300.491 28.56C300.491 30.92 300.731 36.84 304.411 36.84C306.291 36.84 307.091 36.08 307.651 35.16C308.131 34.4 308.211 33.48 308.771 32.76C309.611 31.64 311.011 30.88 312.251 30.32L318.891 27.6C320.171 27.12 321.211 25.92 321.211 24.52C321.211 22.4 319.171 21.36 317.291 21.36C314.371 21.36 312.131 23.24 309.931 25.08C309.531 25.44 309.051 25.64 308.491 25.64C305.731 25.64 307.011 19.56 304.411 19.56C302.051 19.56 300.931 23.88 300.651 25.64C300.571 25.92 300.491 26.84 300.491 26.96V28.56Z" fill="black"/>
</g>
<defs>
<clipPath id="clip0_5_705">
<rect width="11.0338" height="11.6828" fill="white" transform="translate(16.5715 23.8714) rotate(147.667)"/>
</clipPath>
<clipPath id="clip1_5_705">
<rect width="11.204" height="10.6144" fill="white" transform="translate(0 34.7538) rotate(-37.071)"/>
</clipPath>
</defs>
</svg>
