<svg width="28" height="31" viewBox="0 0 28 31" fill="none" xmlns="http://www.w3.org/2000/svg">
<g clip-path="url(#clip0_5_666)">
<path d="M1.69384 30.8678H26.3026C27.1548 30.8678 27.8651 30.1531 27.8651 29.2954C27.8295 22.4701 22.3254 16.9312 15.5429 16.9312H12.4535C5.63905 16.9312 0.134933 22.4701 0.134933 29.2919C0.134933 30.1495 0.845143 30.8642 1.69739 30.8642L1.69384 30.8678ZM12.418 18.3606H15.5074C21.5442 18.3606 26.4091 23.2563 26.4091 29.2954C26.4091 29.3669 26.3381 29.4384 26.2671 29.4384H1.69384C1.62282 29.4384 1.5518 29.3669 1.5518 29.2954C1.5518 23.2563 6.41673 18.3606 12.418 18.3606Z" stroke="black" stroke-width="0.75" stroke-miterlimit="10"/>
<path d="M13.984 14.4297C17.1089 14.4297 19.6657 11.8568 19.6657 8.71216V5.85337C19.6657 2.70513 17.1054 0.135792 13.984 0.135792C10.8627 0.135792 8.30235 2.7087 8.30235 5.85337V8.71216C8.30235 11.8568 10.8591 14.4297 13.984 14.4297ZM9.72277 5.85337C9.72277 3.49487 11.6403 1.56519 13.984 1.56519C16.3277 1.56519 18.2453 3.49487 18.2453 5.85337V8.71216C18.2453 11.0707 16.3277 13.0003 13.984 13.0003C11.6403 13.0003 9.72277 11.0707 9.72277 8.71216V5.85337Z" stroke="black" stroke-width="0.75" stroke-miterlimit="10"/>
</g>
<defs>
<clipPath id="clip0_5_666">
<rect width="28" height="31" fill="white"/>
</clipPath>
</defs>
</svg>
