<svg width="61" height="61" viewBox="0 0 61 61" fill="none" xmlns="http://www.w3.org/2000/svg">
<circle cx="30.5" cy="30.5" r="30.5" fill="#5856D6"/>
<path d="M43.9615 19.8389L36.6398 45.8141C36.5177 46.2539 36.2631 46.6454 35.9106 46.9354C35.5581 47.2255 35.1248 47.3998 34.6697 47.4349H34.4741C34.053 47.4339 33.6407 47.3141 33.2848 47.0891C32.9288 46.8642 32.6436 46.5433 32.462 46.1634L27.4738 35.628C27.4248 35.5222 27.4093 35.404 27.4292 35.2892C27.4492 35.1743 27.5037 35.0683 27.5856 34.9853L34.7535 27.8173C34.8657 27.7156 34.9561 27.5922 35.0192 27.4545C35.0823 27.3169 35.1167 27.1678 35.1204 27.0164C35.1242 26.8651 35.0971 26.7145 35.0409 26.5739C34.9847 26.4333 34.9005 26.3056 34.7934 26.1985C34.6863 26.0914 34.5586 26.0072 34.418 25.951C34.2774 25.8948 34.1268 25.8677 33.9755 25.8715C33.8241 25.8752 33.675 25.9096 33.5374 25.9727C33.3997 26.0358 33.2763 26.1262 33.1746 26.2384L26.0066 33.4203C25.9236 33.5021 25.8176 33.5567 25.7027 33.5766C25.5879 33.5966 25.4697 33.5811 25.3639 33.5321L14.8844 28.5718C14.4743 28.3781 14.1299 28.0683 13.894 27.6809C13.6581 27.2935 13.5409 26.8454 13.557 26.3921C13.5818 25.9253 13.7531 25.4783 14.0466 25.1145C14.3401 24.7508 14.7408 24.4889 15.1918 24.366L41.2229 17.0304C41.6782 16.9004 42.163 16.9183 42.6074 17.0815C43.0519 17.2447 43.4331 17.5448 43.696 17.9386C43.8724 18.2185 43.9873 18.5326 44.0331 18.8602C44.0789 19.1878 44.0545 19.5214 43.9615 19.8389Z" fill="white"/>
</svg>
