<svg width="413" height="381" viewBox="0 0 413 381" fill="none" xmlns="http://www.w3.org/2000/svg">
<g clip-path="url(#clip0_5_305)">
<path d="M61.4644 261.532L83.1569 212.316L67.1941 160.973C62.4225 145.582 74.8967 130.31 90.922 131.932L144.421 137.357L188.317 106.316C201.482 97.0123 219.863 104.162 223.258 119.928L234.635 172.482L277.728 204.643C290.642 214.289 289.518 233.979 275.611 242.082L229.152 269.137L211.871 320.042C206.696 335.295 187.625 340.306 175.603 329.578L135.514 293.746L81.7476 293.078C65.6361 292.86 54.9766 276.281 61.4644 261.532Z" fill="#FFECB8"/>
<path d="M226.093 180.82C226.093 180.82 218.07 159.161 285.959 150.569C285.959 150.569 384.801 138.854 352.998 117.353" stroke="#FFECB8" stroke-width="5" stroke-miterlimit="10"/>
<path d="M357.616 112.885C355.358 109.373 350.679 108.356 347.167 110.614C343.654 112.873 342.638 117.551 344.896 121.064C347.154 124.576 351.833 125.593 355.345 123.334C358.858 121.076 359.875 116.398 357.616 112.885Z" fill="#FFECB8"/>
<g clip-path="url(#clip1_5_305)">
<path d="M136.136 225.041C136.136 225.041 135.604 211.996 146.506 221.43" stroke="#F8B600" stroke-width="3" stroke-miterlimit="10"/>
<path d="M166.109 209.794C166.109 209.794 165.576 196.749 176.479 206.184" stroke="#F8B600" stroke-width="3" stroke-miterlimit="10"/>
<path d="M163.451 217.832C163.451 217.832 163.984 230.877 153.081 221.442" stroke="#F8B600" stroke-width="3" stroke-miterlimit="10"/>
</g>
</g>
<defs>
<clipPath id="clip0_5_305">
<rect width="233.442" height="341.291" fill="white" transform="translate(126.252 380.936) rotate(-122.74)"/>
</clipPath>
<clipPath id="clip1_5_305">
<rect width="25.6502" height="48.2419" fill="white" transform="translate(166.41 190) rotate(49.0019)"/>
</clipPath>
</defs>
</svg>
